# xmcd
#
# Track frame offsets:
#	150
#	13471
#	27274
#	39753
#	51053
#	68897
#	78699
#	95530
#	109275
#	123450
#	133695
#	146280
#	154874
#	166626
#
# Disc length: 2443 seconds
#
# Revision: 1
# Processed by: cddbd v1.4PL0 Copyright (c) Steve Scherf et al.
# Submitted via: audiograbber 1.82.01
#
DISCID=b809890e
DTITLE=Joy Adams - Covers
DYEAR=1999
DGENRE=Country
TTITLE0=Heartaches By The Number
TTITLE1=My Shoes Keep Walking Back To You
TTITLE2=Sad Movies
TTITLE3=Waltz Acros Texas
TTITLE4=Me And Bobby McGee
TTITLE5=Oh Lonesome Me
TTITLE6=There Goes My Everything
TTITLE7=Everybody's Somebodys Fool
TTITLE8=Before The Next Teardrop Falls
TTITLE9=Walk Right Back
TTITLE10=Blackboard Of My Heart
TTITLE11=Hey Good Looking
TTITLE12=Fraulein
TTITLE13=One Day At A Time
EXTD=
EXTT0=
EXTT1=
EXTT2=
EXTT3=
EXTT4=
EXTT5=
EXTT6=
EXTT7=
EXTT8=
EXTT9=
EXTT10=
EXTT11=
EXTT12=
EXTT13=
PLAYORDER=
